<svg width="48" height="48" viewBox="0 0 48 48" fill="none" xmlns="http://www.w3.org/2000/svg">
<path d="M34 34.0001C34.8333 34.0001 35.542 33.7087 36.126 33.1261C36.71 32.5434 37.0013 31.8347 37 31.0001C37 30.1667 36.7087 29.4587 36.126 28.8761C35.5433 28.2934 34.8347 28.0014 34 28.0001C33.1667 28.0001 32.4587 28.2921 31.876 28.8761C31.2933 29.4601 31.0013 30.1681 31 31.0001C31 31.8334 31.292 32.5421 31.876 33.1261C32.46 33.7101 33.168 34.0014 34 34.0001ZM34 40.0001C35.0587 40.0001 36.0153 39.7647 36.87 39.2941C37.7233 38.8234 38.43 38.1881 38.99 37.3881C38.23 36.9294 37.4333 36.5834 36.6 36.3501C35.7667 36.1167 34.9 36.0001 34 36.0001C33.1 36.0001 32.2333 36.1167 31.4 36.3501C30.5667 36.5834 29.7707 36.9301 29.012 37.3901C29.5707 38.1901 30.2773 38.8247 31.132 39.2941C31.984 39.7647 32.94 40.0001 34 40.0001ZM24 41.9241C19.9827 40.7307 16.6447 38.2967 13.986 34.6221C11.3287 30.9461 10 26.8054 10 22.2001V11.3841L24 6.15405L38 11.3841V22.6961C37.7 22.5827 37.3707 22.4827 37.012 22.3961C36.652 22.3067 36.3147 22.2247 36 22.1501V12.7621L24 8.30005L12 12.7601V22.2001C12 24.1774 12.292 26.0707 12.876 27.8801C13.4587 29.6907 14.2533 31.3561 15.26 32.8761C16.2667 34.3947 17.4567 35.7214 18.83 36.8561C20.2033 37.9907 21.6687 38.8567 23.226 39.4541L23.342 39.4141C23.5033 39.8141 23.7047 40.2027 23.946 40.5801C24.186 40.9574 24.4593 41.3114 24.766 41.6421C24.63 41.6941 24.502 41.7407 24.382 41.7821C24.262 41.8234 24.1347 41.8721 24 41.9241ZM34 42.0001C31.772 42.0001 29.8813 41.2241 28.328 39.6721C26.7747 38.1201 25.9987 36.2294 26 34.0001C26 31.7721 26.776 29.8814 28.328 28.3281C29.88 26.7747 31.7707 25.9987 34 26.0001C36.228 26.0001 38.1187 26.7761 39.672 28.3281C41.2253 29.8801 42.0013 31.7707 42 34.0001C42 36.2281 41.224 38.1187 39.672 39.6721C38.12 41.2254 36.2293 42.0014 34 42.0001Z" fill="#37517E"/>
</svg>

