<svg width="48" height="48" viewBox="0 0 48 48" fill="none" xmlns="http://www.w3.org/2000/svg">
<path fill-rule="evenodd" clip-rule="evenodd" d="M42.9098 10.832C43.0998 11.1204 43.1845 11.4656 43.1495 11.8092C43.1145 12.1528 42.962 12.4738 42.7178 12.718L24.3318 31.102C24.1437 31.29 23.909 31.4246 23.6518 31.492L15.9938 33.492C15.7406 33.558 15.4746 33.5567 15.2222 33.4882C14.9697 33.4196 14.7396 33.2862 14.5546 33.1012C14.3696 32.9163 14.2362 32.6861 14.1676 32.4336C14.0991 32.1812 14.0978 31.9152 14.1638 31.662L16.1638 24.006C16.2222 23.7762 16.3323 23.5628 16.4858 23.382L34.9398 4.94002C35.221 4.65912 35.6023 4.50134 35.9998 4.50134C36.3973 4.50134 36.7785 4.65912 37.0598 4.94002L42.7178 10.596C42.7896 10.668 42.8539 10.7471 42.9098 10.832ZM39.5358 11.656L35.9998 8.12202L18.9638 25.158L17.7138 29.944L22.4998 28.694L39.5358 11.656Z" fill="#37517E"/>
<path d="M39.2821 34.32C39.8288 29.6479 40.0033 24.9398 39.8041 20.24C39.7998 20.1293 39.8183 20.0189 39.8586 19.9156C39.8988 19.8124 39.96 19.7186 40.0381 19.64L42.0061 17.672C42.0599 17.6179 42.1281 17.5805 42.2027 17.5643C42.2772 17.5481 42.3548 17.5537 42.4262 17.5805C42.4976 17.6074 42.5597 17.6542 42.6051 17.7155C42.6505 17.7768 42.6773 17.8499 42.6821 17.926C43.0525 23.5085 42.9119 29.1131 42.2621 34.67C41.7901 38.714 38.5421 41.884 34.5161 42.334C27.5268 43.108 20.4734 43.108 13.4841 42.334C9.46011 41.884 6.21011 38.714 5.73811 34.67C4.90891 27.5808 4.90891 20.4192 5.73811 13.33C6.21011 9.28602 9.45811 6.11602 13.4841 5.66602C18.7889 5.07778 24.1336 4.93528 29.4621 5.24002C29.5384 5.24549 29.6115 5.27271 29.6727 5.31844C29.734 5.36417 29.7809 5.42651 29.8078 5.49806C29.8348 5.56961 29.8406 5.64738 29.8247 5.72217C29.8088 5.79695 29.7718 5.86561 29.7181 5.92002L27.7321 7.90402C27.6543 7.98151 27.5615 8.04226 27.4593 8.0825C27.3572 8.12275 27.2479 8.14164 27.1381 8.13802C22.6916 7.98687 18.24 8.15731 13.8181 8.64802C12.526 8.79103 11.3198 9.36546 10.3944 10.2785C9.46903 11.1916 8.87846 12.3899 8.71811 13.68C7.91621 20.5367 7.91621 27.4634 8.71811 34.32C8.87846 35.6101 9.46903 36.8085 10.3944 37.7215C11.3198 38.6346 12.526 39.209 13.8181 39.352C20.5281 40.102 27.4721 40.102 34.1841 39.352C35.4762 39.209 36.6824 38.6346 37.6078 37.7215C38.5332 36.8085 39.1218 35.6101 39.2821 34.32Z" fill="#37517E"/>
</svg>
