<svg width="48" height="48" viewBox="0 0 48 48" fill="none" xmlns="http://www.w3.org/2000/svg">
<path d="M23.9239 40C20.0826 40 16.7119 38.8213 13.8119 36.464C10.9106 34.1053 9.07993 31.084 8.31993 27.4C8.23727 27.1053 8.2666 26.8327 8.40793 26.582C8.54927 26.3327 8.7706 26.1873 9.07193 26.146C9.35726 26.106 9.60793 26.1673 9.82393 26.33C10.0386 26.494 10.1906 26.7273 10.2799 27.03C11.0039 30.21 12.6353 32.8333 15.1739 34.9C17.7113 36.9667 20.6279 38 23.9239 38C27.8239 38 31.1319 36.642 33.8479 33.926C36.5639 31.21 37.9226 27.9013 37.9239 24C37.9239 20.1 36.5653 16.7913 33.8479 14.074C31.1306 11.3567 27.8226 9.99867 23.9239 10C21.8546 10 19.9093 10.4373 18.0879 11.312C16.2679 12.1867 14.6613 13.3907 13.2679 14.924H17.2299C17.5139 14.924 17.7519 15.0193 17.9439 15.21C18.1346 15.402 18.2299 15.64 18.2299 15.924C18.2299 16.208 18.1346 16.4453 17.9439 16.636C17.7519 16.828 17.5139 16.924 17.2299 16.924H11.5399C11.0826 16.924 10.6993 16.7687 10.3899 16.458C10.0806 16.1487 9.92593 15.7653 9.92593 15.308V9.616C9.92593 9.332 10.0213 9.094 10.2119 8.902C10.4026 8.71 10.6406 8.61467 10.9259 8.616C11.2099 8.616 11.4473 8.71133 11.6379 8.902C11.8299 9.094 11.9259 9.332 11.9259 9.616V13.392C13.4726 11.6947 15.2846 10.372 17.3619 9.424C19.4379 8.47467 21.6253 8 23.9239 8C26.1439 8 28.2233 8.41733 30.1619 9.252C32.1006 10.0867 33.7946 11.2287 35.2439 12.678C36.6933 14.1273 37.8359 15.822 38.6719 17.762C39.5066 19.6993 39.9239 21.778 39.9239 23.998C39.9239 26.2167 39.5066 28.2967 38.6719 30.238C37.8373 32.1767 36.6946 33.8713 35.2439 35.322C33.7946 36.7713 32.1006 37.9133 30.1619 38.748C28.2233 39.5827 26.1453 40 23.9239 40ZM25.0379 23.584L31.0379 29.584C31.2246 29.7707 31.3246 30.0007 31.3379 30.274C31.3513 30.5447 31.2513 30.7867 31.0379 31C30.8246 31.2133 30.5886 31.32 30.3299 31.32C30.0713 31.32 29.8359 31.2133 29.6239 31L23.5239 24.9C23.3493 24.7267 23.2246 24.544 23.1499 24.352C23.0753 24.16 23.0379 23.962 23.0379 23.758V15C23.0379 14.716 23.1339 14.4787 23.3259 14.288C23.5179 14.0973 23.7559 14.0013 24.0399 14C24.3239 14 24.5613 14.096 24.7519 14.288C24.9426 14.4787 25.0379 14.716 25.0379 15V23.584Z" fill="#37517E"/>
</svg>
