<svg width="32" height="32" viewBox="0 0 32 32" fill="none" xmlns="http://www.w3.org/2000/svg">
<path d="M18.6667 18.6667V8.00003M18.6667 18.6667L26.8027 23.316C26.9242 23.3856 27.062 23.422 27.2021 23.4217C27.3421 23.4213 27.4797 23.3842 27.6009 23.314C27.7221 23.2438 27.8228 23.143 27.8928 23.0217C27.9629 22.9004 27.9998 22.7628 28 22.6227V4.04403C28.0001 3.90383 27.9633 3.76608 27.8933 3.64458C27.8234 3.52308 27.7227 3.4221 27.6015 3.35174C27.4802 3.28139 27.3426 3.24413 27.2024 3.24372C27.0622 3.2433 26.9243 3.27973 26.8027 3.34936L18.6667 8.00003M18.6667 18.6667H9.33333M18.6667 8.00003H9.33333C7.91885 8.00003 6.56229 8.56193 5.5621 9.56212C4.5619 10.5623 4 11.9189 4 13.3334C4 14.7478 4.5619 16.1044 5.5621 17.1046C6.56229 18.1048 7.91885 18.6667 9.33333 18.6667M9.33333 18.6667L10.3427 25.7334C10.448 26.4209 10.8204 27.0391 11.3789 27.4536C11.9375 27.8681 12.637 28.0455 13.3256 27.9471C14.0141 27.8487 14.6361 27.4826 15.0562 26.9283C15.4763 26.3739 15.6607 25.6762 15.5693 24.9867L14.6667 18.6667H9.33333Z" stroke="#37517E" stroke-width="2"/>
</svg>
