<svg width="48" height="48" viewBox="0 0 48 48" fill="none" xmlns="http://www.w3.org/2000/svg">
<path d="M8.972 10.403C9.30998 9.13998 10.0554 8.02382 11.0925 7.22771C12.1296 6.43159 13.4005 6.00004 14.708 6H33.294C34.6015 6.00004 35.8724 6.43159 36.9095 7.22771C37.9466 8.02382 38.692 9.13998 39.03 10.403L43.785 28.172C44.842 32.122 41.865 36 37.776 36H21V22.75C21 21.225 20.3942 19.7625 19.3159 18.6841C18.2375 17.6058 16.775 17 15.25 17H7.75C7.564 17 7.38 17.009 7.2 17.026L8.972 10.403ZM21 40.25C21 40.334 20.998 40.417 20.995 40.5H34.75C34.9142 40.5 35.0767 40.4677 35.2284 40.4049C35.38 40.342 35.5178 40.25 35.6339 40.1339C35.75 40.0178 35.842 39.88 35.9049 39.7284C35.9677 39.5767 36 39.4142 36 39.25C36 39.0858 35.9677 38.9233 35.9049 38.7716C35.842 38.62 35.75 38.4822 35.6339 38.3661C35.5178 38.25 35.38 38.158 35.2284 38.0951C35.0767 38.0323 34.9142 38 34.75 38H21V40.25ZM11.5 29C12.163 29 12.7989 28.7366 13.2678 28.2678C13.7366 27.7989 14 27.163 14 26.5C14 25.837 13.7366 25.2011 13.2678 24.7322C12.7989 24.2634 12.163 24 11.5 24C10.837 24 10.2011 24.2634 9.73223 24.7322C9.26339 25.2011 9 25.837 9 26.5C9 27.163 9.26339 27.7989 9.73223 28.2678C10.2011 28.7366 10.837 29 11.5 29ZM7.75 21.5C7.06 21.5 6.5 22.06 6.5 22.75V40.25C6.5 40.94 7.06 41.5 7.75 41.5H15.25C15.94 41.5 16.5 40.94 16.5 40.25V22.75C16.5 22.06 15.94 21.5 15.25 21.5H7.75ZM4 22.75C4 21.7554 4.39509 20.8016 5.09835 20.0983C5.80161 19.3951 6.75544 19 7.75 19H15.25C16.2446 19 17.1984 19.3951 17.9017 20.0983C18.6049 20.8016 19 21.7554 19 22.75V40.25C19 41.2446 18.6049 42.1984 17.9017 42.9016C17.1984 43.6049 16.2446 44 15.25 44H7.75C6.75544 44 5.80161 43.6049 5.09835 42.9016C4.39509 42.1984 4 41.2446 4 40.25V22.75Z" fill="#37517E"/>
</svg>
