<svg width="48" height="48" viewBox="0 0 48 48" fill="none" xmlns="http://www.w3.org/2000/svg">
<path d="M37.2937 12.2197C37.2735 12.4222 37.2615 12.6532 37.2562 12.9037L34.3807 14.277C33.978 14.211 31.9807 14.3272 29.0017 12.8572C28.2465 12.4845 27.5085 12.2865 26.7998 12.2865C26.1584 12.2874 25.5263 12.4403 24.9555 12.7327C24.2032 12.57 23.1195 12.153 22.4858 12.1545C21.0518 12.162 17.7915 13.3298 16.8885 13.4295C16.005 13.5262 15.0953 13.7692 14.1795 14.1562C12.5153 13.6718 10.4288 12.8805 9.31125 12.4432L1.5 6.75V25.0575L7.2405 27.789C7.32375 27.6915 7.419 27.5415 7.5225 27.3555L7.70025 27.438C7.78725 27.663 7.88325 27.8872 7.98825 28.11C7.35825 29.1705 7.28325 30.3653 7.7865 31.404C8.21775 32.2928 9.021 32.9168 9.91575 33.0915C9.9645 33.645 10.1505 34.1805 10.464 34.6448C11.0265 35.475 11.9205 35.9707 12.8573 35.9707C12.942 35.9707 13.0268 35.967 13.1108 35.9573C13.2443 36.318 13.44 36.654 13.6943 36.945C14.2598 37.5952 15.0518 37.968 15.8663 37.968C15.9263 37.968 15.9847 37.9665 16.044 37.962C16.1475 38.355 16.3238 38.727 16.5697 39.0585C17.136 39.8235 18.0098 40.2788 18.9083 40.2788C19.4662 40.2788 19.9995 40.1077 20.4697 39.7875C21.3787 40.371 22.1693 40.7812 22.8705 41.0332C23.2222 41.1765 23.5882 41.25 23.9618 41.25C24.8452 41.25 25.7025 40.8375 26.3145 40.116C26.5417 39.8475 26.7262 39.5475 26.8612 39.2265C27.1256 39.3065 27.4003 39.3474 27.6765 39.348C28.6155 39.348 29.5057 38.8882 30.1215 38.0842C30.414 37.7032 30.6258 37.2666 30.744 36.801C30.8085 36.8055 30.8723 36.8078 30.936 36.8078C32.0213 36.8078 33.06 36.171 33.6442 35.1458C33.9506 34.6125 34.1131 34.0087 34.116 33.3938C35.1885 33.234 36.1328 32.4713 36.5925 31.359C37.0455 30.2633 36.9225 29.0543 36.2903 28.0462L39.2115 26.4C39.2865 26.6565 39.36 26.8927 39.4313 27.0847L46.5 23.3235V7.9815L37.2937 12.2197ZM37.293 14.4975C37.3395 15.309 37.4242 16.2263 37.5337 17.184C36.9338 16.176 36.1763 15.7162 35.2357 15.4875L37.293 14.4975ZM33.372 32.3145C31.761 31.7602 28.4077 27.8182 28.4077 27.8182H28.4738C28.815 27.7943 29.5522 27.435 30.3795 27.6067C29.0805 26.4907 27.6517 27.435 26.679 26.8567C26.9047 27.5805 27.99 27.8085 28.2683 27.8175L31.4812 31.554C32.9362 33.2452 31.923 35.3378 30.4642 35.6707C29.4855 35.1945 26.7218 31.9072 26.7218 31.9072C26.8163 31.89 27.3765 31.7145 27.9473 31.7895C26.6295 30.804 25.1355 31.659 24.249 31.0403C24.7515 32.2815 26.4067 31.9635 26.58 31.9335L28.299 34.128C29.6745 35.883 28.5937 37.9102 27.1327 38.1847C25.8375 37.7295 24.9967 36.1095 24.9967 36.1095C25.1272 36.0885 25.5637 35.8943 26.1847 35.9842C25.08 35.016 23.7938 35.8943 23.0205 35.343C23.4983 36.384 24.6892 36.147 24.756 36.1395C25.947 38.0153 24.7118 39.9713 23.2358 40.0298H23.2342L23.2327 40.0305C22.3462 39.8768 21.4177 39.168 20.3693 38.4405C20.7292 38.0415 21.0472 37.3402 21.0472 37.3402C22.1003 35.4337 20.7337 33.7477 19.323 33.8925C20.4675 34.2052 21.3255 35.6662 20.4323 37.2885L20.04 37.9485C19.614 38.7248 18.9488 39.1935 18.4598 39.1357C17.7068 39.0443 16.6455 37.9448 17.0917 36.3938C17.2642 36.2363 18.9277 33.6915 18.9277 33.6915C20.0715 31.8495 18.7875 30.0863 17.373 30.1462C18.4995 30.5265 19.2892 32.037 18.318 33.6045L16.9657 35.7127C16.5045 36.4583 15.9075 36.8805 15.3383 36.8025C14.4548 36.6825 13.8352 35.6048 13.977 34.4925C13.9695 34.4993 14.9505 33.402 14.9505 33.402C16.254 31.6987 15.138 29.7968 13.7257 29.697C14.811 30.2025 15.4575 31.7955 14.3497 33.2453L13.8713 33.8318C13.3463 34.5203 12.714 34.8705 12.1605 34.7325C11.1945 34.4903 10.692 32.6827 11.1488 32.19C11.508 31.8022 12.5167 30.5745 12.5167 30.5745C13.8195 28.8705 12.705 26.9693 11.2913 26.868C12.3773 27.375 13.0237 28.968 11.916 30.4185L11.4375 31.0035C10.9095 31.698 10.275 32.0468 9.71775 31.905C8.55675 31.611 7.977 29.8185 9.08775 28.3635C9.08775 28.3635 8.7105 27.165 8.54025 26.6527L7.98075 26.3933C9.2925 23.337 11.274 16.5915 11.3655 14.3505C12.3315 14.6948 14.8815 15.4283 15.1522 15.4298L15.1508 15.4313C17.8958 14.5688 20.7728 14.664 22.0853 14.157C22.5105 13.995 23.3565 13.9845 24.2535 14.4975C23.6933 14.9887 23.1637 15.5738 22.614 16.119C21.3 17.4233 16.4145 19.4572 17.3565 21.5963C18.1695 23.442 20.4593 25.3305 24.3 22.3657L26.46 22.0687L29.8192 23.7262L34.1243 28.1475C35.6595 29.721 34.7902 31.857 33.372 32.3145ZM34.452 27.4432C33.9585 26.5208 32.4202 25.008 30.9683 23.7712L30.9592 23.7623C31.629 23.7893 32.3317 22.7107 33.24 22.6275C32.6055 22.143 31.554 22.7025 31.2262 22.791C29.4195 23.277 26.6115 21.0037 26.6115 21.0037L23.925 21.3907C23.925 21.3907 20.73 25.29 18.0382 22.0778C16.5765 20.3333 21.8738 18.0547 23.1788 16.758C24.8505 15.0968 26.34 13.0642 29.0902 14.4487C31.3747 15.6007 32.2747 15.5295 35.3392 16.0627C36.2528 16.2225 36.8857 16.641 37.5645 17.4578C37.884 20.1458 38.4007 23.127 38.8965 25.2015C38.6408 25.4167 36.4485 26.8913 34.452 27.4432Z" fill="#37517E"/>
</svg>
