<svg width="48" height="48" viewBox="0 0 48 48" fill="none" xmlns="http://www.w3.org/2000/svg">
<g clip-path="url(#clip0_128_202)">
<path d="M24 23.2509C26.7377 23.2509 29.0923 20.8063 29.0923 17.6229C29.0923 14.478 26.7249 12.1483 24 12.1483C21.2751 12.1483 18.9069 14.5295 18.9069 17.6486C18.9069 20.8063 21.2623 23.2509 24 23.2509ZM9.34543 23.5432C11.7137 23.5432 13.7769 21.4046 13.7769 18.642C13.7769 15.9043 11.7009 13.8797 9.34543 13.8797C6.97714 13.8797 4.88914 15.9549 4.902 18.6669C4.902 21.4046 6.96429 23.544 9.34543 23.544M38.6546 23.544C41.0357 23.544 43.098 21.4055 43.098 18.6677C43.098 15.9557 41.0229 13.8806 38.6546 13.8806C36.2991 13.8806 34.2231 15.9052 34.2231 18.642C34.2231 21.4055 36.2863 23.544 38.6546 23.544ZM2.24057 35.0409H11.9177C10.5934 33.1183 12.21 29.2475 14.9477 27.1337C13.5334 26.1917 11.7137 25.4915 9.33343 25.4915C3.58971 25.4915 0 29.7309 0 33.258C0 34.404 0.636857 35.0409 2.24057 35.0409ZM45.7594 35.0409C47.376 35.0409 48 34.404 48 33.258C48 29.7309 44.4094 25.4915 38.6674 25.4915C36.2863 25.4915 34.4657 26.1917 33.0531 27.1337C35.79 29.2475 37.4074 33.1183 36.0831 35.0409H45.7594ZM15.9909 35.0409H31.9954C33.9943 35.0409 34.7074 34.4675 34.7074 33.3472C34.7074 30.0626 30.5949 25.53 23.9871 25.53C17.3923 25.53 13.2797 30.0626 13.2797 33.3472C13.2797 34.4675 13.992 35.0409 15.9909 35.0409Z" fill="#37517E"/>
</g>
<defs>
<clipPath id="clip0_128_202">
<rect width="48" height="48" fill="white"/>
</clipPath>
</defs>
</svg>
