<svg width="48" height="48" viewBox="0 0 48 48" fill="none" xmlns="http://www.w3.org/2000/svg">
<g clip-path="url(#clip0_128_194)">
<path d="M32.9537 25.056C37.056 25.056 40.3989 21.402 40.3989 16.956C40.3989 12.5606 37.0731 9.07886 32.9537 9.07886C28.8686 9.07886 25.5077 12.612 25.5077 16.9903C25.5249 21.4191 28.8686 25.056 32.9537 25.056ZM13.0989 25.4349C16.6491 25.4349 19.5617 22.2463 19.5617 18.3343C19.5617 14.508 16.6834 11.4231 13.0989 11.4231C9.54857 11.4231 6.61886 14.5603 6.636 18.3686C6.65314 22.2643 9.54857 25.4349 13.0989 25.4349ZM32.9537 22.4537C30.4371 22.4537 28.2823 20.0409 28.2823 16.9903C28.2823 13.9903 30.4029 11.682 32.9537 11.682C35.5217 11.682 37.6243 13.9569 37.6243 16.9551C37.6243 20.0066 35.5046 22.4537 32.9537 22.4537ZM13.0989 22.8669C10.9963 22.8669 9.204 20.8509 9.204 18.3686C9.204 15.9386 10.9783 13.9911 13.0989 13.9911C15.27 13.9911 17.0109 15.9043 17.0109 18.3343C17.0109 20.8509 15.2186 22.8669 13.0989 22.8669ZM3.516 41.2397H17.046C16.218 40.7743 15.5803 39.7397 15.7011 38.6889H3.08571C2.74114 38.6889 2.56886 38.5517 2.56886 38.2234C2.56886 33.9497 7.446 29.9511 13.0826 29.9511C15.2537 29.9511 17.2011 30.468 18.8734 31.4503C19.4278 30.7477 20.0842 30.132 20.8209 29.6237C18.5974 28.158 15.9266 27.4003 13.0826 27.4003C5.86029 27.4003 0 32.6391 0 38.3786C0 40.2917 1.17171 41.2397 3.516 41.2397ZM22.1297 41.2397H43.7777C46.638 41.2397 48 40.3783 48 38.4823C48 33.9669 42.2949 27.4337 32.9537 27.4337C23.5946 27.4337 17.8903 33.9669 17.8903 38.4823C17.8903 40.3783 19.2514 41.2397 22.1297 41.2397ZM21.3026 38.6374C20.8543 38.6374 20.6649 38.5174 20.6649 38.1549C20.6649 35.328 25.0423 30.0377 32.9537 30.0377C40.848 30.0377 45.2246 35.328 45.2246 38.1549C45.2246 38.5166 45.0531 38.6374 44.604 38.6374H21.3026Z" fill="#37517E"/>
</g>
<defs>
<clipPath id="clip0_128_194">
<rect width="48" height="48" fill="white"/>
</clipPath>
</defs>
</svg>
