<svg width="48" height="48" viewBox="0 0 48 48" fill="none" xmlns="http://www.w3.org/2000/svg">
<path d="M20 4.5C19.6022 4.5 19.2206 4.65804 18.9393 4.93934C18.658 5.22064 18.5 5.60218 18.5 6V7.5H10C9.60218 7.5 9.22064 7.65804 8.93934 7.93934C8.65804 8.22064 8.5 8.60218 8.5 9C8.5 9.39782 8.65804 9.77936 8.93934 10.0607C9.22064 10.342 9.60218 10.5 10 10.5H38C38.3978 10.5 38.7794 10.342 39.0607 10.0607C39.342 9.77936 39.5 9.39782 39.5 9C39.5 8.60218 39.342 8.22064 39.0607 7.93934C38.7794 7.65804 38.3978 7.5 38 7.5H29.5V6C29.5 5.60218 29.342 5.22064 29.0607 4.93934C28.7794 4.65804 28.3978 4.5 28 4.5H20ZM20 21.3C20.3978 21.3 20.7794 21.458 21.0607 21.7393C21.342 22.0206 21.5 22.4022 21.5 22.8V36.8C21.5 37.1978 21.342 37.5794 21.0607 37.8607C20.7794 38.142 20.3978 38.3 20 38.3C19.6022 38.3 19.2206 38.142 18.9393 37.8607C18.658 37.5794 18.5 37.1978 18.5 36.8V22.8C18.5 22.4022 18.658 22.0206 18.9393 21.7393C19.2206 21.458 19.6022 21.3 20 21.3ZM29.5 22.8C29.5 22.4022 29.342 22.0206 29.0607 21.7393C28.7794 21.458 28.3978 21.3 28 21.3C27.6022 21.3 27.2206 21.458 26.9393 21.7393C26.658 22.0206 26.5 22.4022 26.5 22.8V36.8C26.5 37.1978 26.658 37.5794 26.9393 37.8607C27.2206 38.142 27.6022 38.3 28 38.3C28.3978 38.3 28.7794 38.142 29.0607 37.8607C29.342 37.5794 29.5 37.1978 29.5 36.8V22.8Z" fill="#37517E"/>
<path fill-rule="evenodd" clip-rule="evenodd" d="M11.9818 15.834C12.0227 15.467 12.1975 15.1279 12.4728 14.8818C12.7481 14.6356 13.1045 14.4997 13.4738 14.5H34.5258C34.8951 14.4997 35.2515 14.6356 35.5268 14.8818C35.8021 15.1279 35.9769 15.467 36.0178 15.834L36.4178 19.438C37.1438 25.968 37.1438 32.558 36.4178 39.09L36.3778 39.444C36.2376 40.704 35.6819 41.8814 34.7982 42.7904C33.9145 43.6994 32.7533 44.2883 31.4978 44.464C26.5234 45.1604 21.4762 45.1604 16.5018 44.464C15.2463 44.2883 14.0851 43.6994 13.2014 42.7904C12.3178 41.8814 11.762 40.704 11.6218 39.444L11.5818 39.09C10.8562 32.5594 10.8562 25.9686 11.5818 19.438L11.9818 15.834ZM14.8158 17.5L14.5638 19.768C13.8626 26.0786 13.8626 32.4474 14.5638 38.758L14.6038 39.112C14.67 39.7097 14.9334 40.2684 15.3524 40.6997C15.7715 41.1311 16.3223 41.4105 16.9178 41.494C21.6178 42.152 26.3838 42.152 31.0818 41.494C31.6771 41.4106 32.2276 41.1314 32.6466 40.7005C33.0656 40.2696 33.3292 39.7114 33.3958 39.114L33.4358 38.758C34.1358 32.448 34.1358 26.078 33.4358 19.768L33.1838 17.5H14.8158Z" fill="#37517E"/>
</svg>
